<svg xmlns="http://www.w3.org/2000/svg" viewBox="0 0 24 24" width="512" height="512" role="img" aria-label="Yewogen Derash">
  <!-- Giving mark: a heart cradled in open hands. Transparent background. -->
  <path d="M12 13.91 C12 13.91 6.71 10.61 6.71 6.95 C6.71 5.08 8.17 3.54 10.05 3.54 C11 3.54 11.64 4.14 12 4.72 C12.36 4.14 13 3.54 13.95 3.54 C15.83 3.54 17.29 5.08 17.29 6.95 C17.29 10.61 12 13.91 12 13.91 Z" fill="#c8922a"/><path d="M9.52 13.94 L14.48 13.94 A3.6 3.6 0 0 1 18.08 17.53 A3.6 3.6 0 0 1 14.48 20.76 L9.52 20.76 A3.6 3.6 0 0 1 5.92 17.53 A3.6 3.6 0 0 1 9.52 13.94 Z" fill="#0f7a4d"/><path d="M6.78 16.79 L3.59 11.69 A1.18 1.18 0 0 1 5.6 10.44 L8.79 15.55 Z" fill="#0f7a4d"/><path d="M15.21 15.55 L18.4 10.44 A1.18 1.18 0 0 1 20.41 11.69 L17.22 16.79 Z" fill="#0f7a4d"/><path d="M8.74 16.86 L4.03 14.01 A1.36 1.36 0 0 0 2.61 16.34 L7.33 19.19 Z" fill="#0f7a4d"/><path d="M16.67 19.19 L21.39 16.34 A1.36 1.36 0 0 0 19.97 14.01 L15.26 16.86 Z" fill="#0f7a4d"/>
</svg>
